<svg width="240" height="240" viewBox="0 0 240 240" fill="none" xmlns="http://www.w3.org/2000/svg">
<g clip-path="url(#clip0_2303_214)">
<path d="M83.3756 231.85C103.465 231.85 119.751 215.146 119.751 194.542V157.233H83.3756C63.2859 157.233 47 173.937 47 194.542C47 215.146 63.2859 231.85 83.3756 231.85Z" fill="#000B1D"/>
<path d="M47 119.925C47 99.3202 63.2859 82.6167 83.3756 82.6167H119.751V157.233H83.3756C63.2859 157.233 47 140.53 47 119.925Z" fill="#000B1D"/>
<path d="M47 45.3083C47 24.7035 63.2859 8 83.3756 8H119.751V82.6167H83.3756C63.2859 82.6167 47 65.9132 47 45.3083Z" fill="#000B1D"/>
<path d="M119.751 8H156.127C176.217 8 192.502 24.7035 192.502 45.3083C192.502 65.9132 176.217 82.6167 156.127 82.6167H119.751V8Z" fill="#000B1D"/>
<path d="M192.502 119.925C192.502 140.53 176.217 157.233 156.127 157.233C136.037 157.233 119.751 140.53 119.751 119.925C119.751 99.3202 136.037 82.6167 156.127 82.6167C176.217 82.6167 192.502 99.3202 192.502 119.925Z" fill="#000B1D"/>
</g>
<defs>
<clipPath id="clip0_2303_214">
<rect width="240" height="240" rx="120" fill="white"/>
</clipPath>
</defs>
</svg>
