<svg width="240" height="240" viewBox="0 0 240 240" fill="none" xmlns="http://www.w3.org/2000/svg">
<g clip-path="url(#clip0_2302_2)">
<path d="M42.5 1.93444e-05H197.5C203.083 -0.00537727 208.612 1.11842 213.77 3.3071C218.929 5.49578 223.616 8.70637 227.564 12.7551C231.511 16.8039 234.642 21.6113 236.776 26.9023C238.91 32.1933 240.005 37.864 240 43.5898V196.41C240.005 202.136 238.91 207.807 236.776 213.098C234.642 218.389 231.511 223.196 227.564 227.245C223.616 231.294 218.929 234.504 213.77 236.693C208.612 238.882 203.083 240.005 197.5 240H42.5C36.9174 240.005 31.3885 238.882 26.2297 236.693C21.071 234.504 16.3838 231.294 12.4362 227.245C8.48871 223.196 5.35838 218.389 3.22442 213.098C1.09046 207.807 -0.00524284 202.136 1.88608e-05 196.41V43.5898C-0.00524284 37.864 1.09046 32.1933 3.22442 26.9023C5.35838 21.6113 8.48871 16.8039 12.4362 12.7551C16.3838 8.70637 21.071 5.49578 26.2297 3.3071C31.3885 1.11842 36.9174 -0.00537727 42.5 1.93444e-05V1.93444e-05Z" fill="#000B1D"/>
<path d="M95 196.923C108.807 196.923 120 185.443 120 171.282V145.641H95C81.1929 145.641 70 157.121 70 171.282C70 185.443 81.1929 196.923 95 196.923Z" stroke="white" stroke-width="9"/>
<path d="M70 120C70 105.839 81.1929 94.359 95 94.359H120V145.641H95C81.1929 145.641 70 134.161 70 120Z" stroke="white" stroke-width="9"/>
<path d="M70 68.7179C70 54.5568 81.1929 43.0769 95 43.0769H120V94.359H95C81.1929 94.359 70 82.8791 70 68.7179Z" stroke="white" stroke-width="9"/>
<path d="M120 43.0769H145C158.807 43.0769 170 54.5568 170 68.7179C170 82.8791 158.807 94.359 145 94.359H120V43.0769Z" stroke="white" stroke-width="9"/>
<path d="M170 120C170 134.161 158.807 145.641 145 145.641C131.193 145.641 120 134.161 120 120C120 105.839 131.193 94.359 145 94.359C158.807 94.359 170 105.839 170 120Z" stroke="white" stroke-width="9"/>
</g>
<defs>
<clipPath id="clip0_2302_2">
<rect width="240" height="240" rx="120" fill="white"/>
</clipPath>
</defs>
</svg>
