<svg width="50" height="61" viewBox="0 0 50 61" fill="none" xmlns="http://www.w3.org/2000/svg">
<path d="M42.4922 14.235C41.963 15.4827 41.3784 18.1559 41.2329 19.6827C41.2296 19.7106 41.2264 19.7386 41.2232 19.7666C41.182 20.1254 41.1506 20.4676 41.1197 20.8716C41.0516 21.8307 40.961 23.1322 40.9364 25.8856C40.9465 26.6868 40.9656 27.4896 40.9897 28.2935C41.017 29.199 41.0512 30.106 41.0878 31.0143C41.2723 36.1591 43.2134 41.0773 45.2968 45.9421C46.2249 48.2008 47.4175 50.251 48.6177 52.5229C48.6554 52.6001 48.6934 52.6884 48.7215 52.8127C48.7614 52.9765 48.7758 53.282 48.6033 53.5547C48.4319 53.8235 48.2058 53.9241 48.0613 53.9757C47.5128 54.1255 47.2665 54.0288 46.9498 53.9617C44.5892 53.0141 43.0455 51.3957 41.8031 50.4123C41.2153 49.9062 40.7026 49.4541 40.2412 49.0437C39.3971 48.2929 38.7365 47.6765 38.1722 47.1363C35.4254 44.455 32.5897 42.0175 30.8421 38.1205C30.8188 38.0063 30.7993 37.9079 30.7833 37.8242C30.7589 37.6956 30.746 37.6349 30.7251 37.4916C30.7299 37.4492 30.6999 37.5655 30.731 37.2489C30.7565 37.1936 30.7351 37.0516 31.0188 36.8676C31.162 36.7835 31.3713 36.7852 31.4836 36.831C31.6014 36.8744 31.6559 36.9262 31.6937 36.9613C31.7948 37.0698 31.7802 37.0727 31.8011 37.104C31.8257 37.1509 31.8314 37.1694 31.8389 37.1884C31.8665 37.2672 31.8658 37.2723 31.8747 37.3022C31.8899 37.356 31.906 37.4183 31.9166 37.4599C31.9425 37.5621 31.9658 37.6584 31.9892 37.7564C32.082 38.1475 32.1686 38.5365 32.2538 38.9284C32.422 39.7038 32.5812 40.4802 32.7334 41.2604C33.0366 42.8208 33.3137 44.3849 33.5311 45.966C33.7049 47.4489 33.9661 48.8535 33.723 50.5112C33.5653 51.2508 33.314 51.9739 32.9729 52.6505C32.0143 54.5694 30.3661 56.0124 28.623 57.0874C27.6094 57.7312 26.5995 58.2465 25.6567 58.6922C24.7109 59.1379 23.8284 59.5137 23.0524 59.8442C22.7086 59.9899 22.3679 60.1003 22.0398 60.1789C20.4003 60.5967 18.5085 60.2191 17.0855 59.385C15.8837 58.6269 15.5193 57.5232 15.1697 56.6779C15.0397 56.3305 14.9338 56.0022 14.8424 55.6975C14.3176 54.011 13.9886 52.3113 13.685 50.6136C13.6722 50.4995 13.659 50.38 13.6468 50.2641C13.5156 49.019 13.3026 47.5309 13.0178 45.3781C12.9661 44.9863 12.936 44.5685 12.94 44.1271C12.9425 42.8164 13.303 41.2875 14.1095 39.7416C14.5284 38.9362 14.8444 38.4933 15.0866 38.1513C15.1478 38.0655 15.2059 37.9888 15.2637 37.9151C15.3519 37.8029 15.4386 37.6992 15.527 37.5972C15.8319 37.2466 16.1532 36.8735 16.5925 36.4902C17.1015 36.0425 17.7948 35.5967 18.7073 35.2363C18.8221 35.1897 18.943 35.1489 19.0691 35.1157C19.8497 34.9063 20.6122 35.037 21.1789 35.3093C23.4427 36.4937 23.9137 37.9176 24.3969 38.7568C24.5563 39.0864 24.6842 39.3918 24.7966 39.7089C25.1714 40.7401 25.4257 42.2524 25.5292 43.3878C25.6008 44.094 25.7422 45.3464 25.8613 46.502C25.8979 46.8559 25.8991 47.2024 25.8738 47.5272C25.8327 48.0936 25.6528 48.8551 25.2643 49.6483C24.8668 50.4721 24.258 51.3222 23.5225 52.1274C21.9511 53.8015 20.7812 54.5502 19.9256 55.1624C19.7271 55.2986 19.5287 55.4138 19.3321 55.5112C18.9965 55.6773 18.6667 55.7929 18.3375 55.8781C17.2889 56.1537 16.018 56.1264 14.8079 56.0061C13.3488 55.859 11.9141 55.5946 10.8316 55.4012C9.39929 55.1049 7.9895 54.7844 6.56669 54.4567C6.54758 54.4527 6.49215 54.4362 6.47372 54.4297C5.15635 53.9406 3.85057 53.4139 2.56357 52.8741C2.16977 52.7096 1.77825 52.5387 1.4122 52.3798C1.22838 52.3002 1.04854 52.2227 0.881544 52.1558C0.801723 52.1237 0.717822 52.0921 0.654348 52.0706C0.608928 52.0429 0.478548 52.0564 0.678161 52.0264L1.13683 51.5855C1.09991 51.6464 1.0722 51.9416 1.06049 52.1531C1.0472 52.3799 1.03991 52.6038 1.0317 52.813C0.998129 53.8324 0.921041 54.4314 0.755076 54.4505C0.593835 54.4679 0.356114 53.9178 0.143772 52.8856C0.0741951 52.4345 -0.0679193 52.0375 0.0379298 51.2759C0.0821072 51.1253 0.259129 50.9511 0.412191 50.9161C0.739818 50.8589 0.813674 50.9153 0.944085 50.9317C1.05983 50.9558 1.16935 50.9858 1.26932 51.0147C1.47589 51.0752 1.6725 51.1419 1.87037 51.2118C2.26261 51.351 2.66145 51.5053 3.05744 51.6624C4.34809 52.1769 5.63914 52.6711 6.94447 53.1307L6.86586 53.1078C8.38736 53.4312 9.8884 53.747 11.401 54.0329C14.0882 54.4645 17.1662 55.2868 19.157 54.0108C19.7721 53.5987 20.3719 53.1688 20.9423 52.711C22.7953 51.2204 24.5384 49.2937 24.6312 47.1046C24.6379 46.9374 24.6348 46.7718 24.6216 46.6039C24.6166 46.5408 24.6116 46.4778 24.6065 46.4148C24.4 44.3291 24.1085 42.2863 23.7349 40.9286C23.4348 39.8049 23.1317 39.0406 22.8075 38.435C22.5836 38.0205 22.3484 37.682 22.0689 37.3859C21.9185 37.2273 21.7033 37.0225 21.4135 36.8189C21.2079 36.6744 20.9656 36.5318 20.6834 36.4069C20.2588 36.2157 19.7306 36.1784 19.2069 36.4051C18.0516 36.8802 16.9925 37.5551 16.2825 38.542C16.2217 38.6242 16.1616 38.7096 16.1023 38.7988C15.5184 39.6775 14.9215 40.6799 14.546 41.7032C14.0436 43.0164 13.9853 44.3562 14.1075 45.2339C14.1357 45.4559 14.1621 45.649 14.1863 45.8102C14.4138 47.3219 14.6428 49.0527 14.8862 50.5766C15.1161 52.0318 15.3658 53.2799 15.5672 53.98C15.809 54.8083 15.9768 55.5237 16.356 56.5155C16.6016 57.1045 16.9332 57.9332 17.652 58.3808C17.7419 58.4325 17.838 58.4846 17.9356 58.5342C19.1771 59.1538 20.1765 59.2613 20.9927 59.2243C21.6008 59.1904 22.127 59.0663 22.6481 58.8578C23.1522 58.654 23.6731 58.4369 24.278 58.1603C25.6985 57.5156 27.1372 56.7861 28.2028 56.1243C28.6897 55.8256 29.2252 55.4524 29.7394 55.0202C30.4218 54.45 31.057 53.7692 31.5392 53.0818C31.9377 52.5164 32.2165 52.0147 32.4284 51.5506C32.4937 51.4073 32.5533 51.2638 32.6056 51.1262C32.6907 50.862 32.7618 50.5945 32.8201 50.3191C32.8684 50.0922 32.8881 49.7927 32.8925 49.5281C32.8892 49.4399 32.8838 49.3321 32.8768 49.2401C32.8417 48.7357 32.764 48.1121 32.6609 47.3371C32.4958 46.1158 32.3404 45.0262 32.1619 43.885C32.0211 42.9942 31.863 42.0746 31.6412 41.0168C31.4901 40.2974 31.3038 39.4871 31.1056 38.682C31.0307 38.3792 30.9488 38.0518 30.8693 37.7604C30.8523 37.6988 30.8254 37.6025 30.8132 37.5686C30.8124 37.5656 30.8102 37.5645 30.8255 37.5989C30.8484 37.629 30.801 37.6089 30.952 37.7658C31.0058 37.812 31.1768 37.9435 31.4396 37.8717C31.6927 37.787 31.7508 37.6192 31.7777 37.5596C31.8226 37.4245 31.8081 37.4061 31.8116 37.3798C31.8079 37.296 31.8113 37.3572 31.8128 37.3568C31.8171 37.3814 31.8267 37.4323 31.8317 37.4563C31.8618 37.6059 31.8883 37.7259 31.9247 37.8932C31.9543 37.9976 32.0794 38.2711 32.176 38.4521C32.2804 38.6513 32.3817 38.8275 32.4821 38.9978C32.639 39.2629 32.7625 39.4851 32.899 39.7181C32.8996 39.7191 32.9001 39.7201 32.9007 39.7211C32.9093 39.736 32.9182 39.7511 32.9271 39.7662C34.0951 41.402 35.507 42.9058 36.9577 44.3278C37.0852 44.4472 37.2197 44.5725 37.3505 44.6931C37.989 45.2823 38.6151 45.8314 39.05 46.1825C39.4165 46.4779 40.2274 47.1828 41.1669 47.9613C41.3979 48.153 41.6321 48.3468 41.8711 48.5434C42.6719 49.2028 43.506 49.8746 44.1968 50.3968C44.6034 50.7043 44.966 51.0111 45.3494 51.3192C45.7025 51.6022 46.0758 51.891 46.4951 52.1378C46.703 52.2594 46.9375 52.3793 47.1601 52.4591C47.2242 52.482 47.2903 52.502 47.3444 52.5139C47.4521 52.5412 47.6033 52.5449 47.604 52.5367C47.5984 52.5484 47.5728 52.4965 47.3803 52.6749C47.2853 52.7676 47.2243 52.969 47.2373 53.0664C47.2448 53.1689 47.2667 53.1953 47.2675 53.1985C47.1454 52.9453 46.9731 52.6132 46.7682 52.2308C46.5417 51.8075 46.2763 51.3214 46.0017 50.8074C45.2434 49.4661 44.5301 48.0786 43.9047 46.6581C43.8883 46.6252 43.872 46.5928 43.8559 46.5607C43.7326 46.3172 43.6176 46.1044 43.5164 45.9368C43.4343 45.8005 43.3578 45.688 43.2792 45.5719C43.172 45.4131 43.0619 45.2506 42.9293 45.0147C42.8263 44.8318 42.7208 44.606 42.6657 44.4499C42.6399 44.3769 42.6247 44.3187 42.6109 44.2658C42.5951 44.2054 42.5808 44.151 42.5547 44.089C42.5359 44.0443 42.5108 44 42.48 43.9454C42.431 43.8585 42.3666 43.7435 42.2917 43.5621C42.0116 42.8843 41.7076 42.1032 41.4275 41.3301C41.1152 40.4705 40.8334 39.617 40.6178 38.9336C40.3746 38.1685 40.0846 37.0564 39.864 35.924C39.7086 35.135 39.5859 34.3371 39.4984 33.6499C39.4117 32.9766 39.3278 32.2735 39.2738 31.5884C39.2606 31.422 39.249 31.2562 39.2394 31.0917C39.2027 30.4689 39.1737 29.8775 39.1713 29.3559C39.1707 29.2242 39.19 29.0589 39.2145 28.8521C39.2318 28.7054 39.2518 28.5378 39.2694 28.3452C39.2444 27.5138 39.2268 26.6808 39.2205 25.8462C39.2168 25.8168 39.2131 25.7865 39.2093 25.7561C39.2092 25.7556 39.2091 25.7552 39.2091 25.7547C39.1246 25.0701 39.009 24.1286 39.1138 22.8017C39.1409 22.4652 39.1804 22.2532 39.2162 22.0632C39.2516 21.8777 39.2839 21.7092 39.3028 21.4642C39.3244 21.1862 39.329 20.8557 39.3397 20.4927C39.3543 19.9866 39.3813 19.415 39.4792 18.8501C39.4859 18.8115 39.4932 18.7701 39.5008 18.727C39.5726 18.3174 39.6897 17.7127 39.8621 17.1188C40.1195 15.8524 40.4806 14.5867 41.0486 13.3823C41.2707 12.9133 41.4957 12.4479 41.7234 11.9862C43.0338 9.33083 44.4554 6.73133 45.9862 4.19752C46.7327 2.96291 47.5241 1.83764 48.1963 1.04836C48.8599 0.263942 49.3593 -0.0987013 49.4802 0.0230945C49.5937 0.125632 49.3803 0.630547 48.9274 1.53553C48.4696 2.44086 47.8197 3.62579 47.1139 4.8611C45.9655 6.87079 44.8827 8.92956 43.8699 11.0077C43.8185 11.1177 43.7667 11.2286 43.715 11.3395C43.3338 12.1576 43.0123 12.9313 42.6999 13.7091C42.651 13.8309 42.6021 13.9533 42.5531 14.0763C42.5325 14.1288 42.5122 14.1816 42.4922 14.235Z" fill="#5B4BAE"/>
</svg>
